<svg xmlns="http://www.w3.org/2000/svg" viewBox="0 0 110.01 63.43"><defs><style>.cls-1{fill:#1d1d1b;}</style></defs><g id="Lager_2" data-name="Lager 2"><g id="Lager_1-2" data-name="Lager 1"><path class="cls-1" d="M50,59l-2.1,4.39A306.31,306.31,0,0,0,0,45.79l1.27-4.68Q30.13,49.83,50,59ZM46.33,33.19,44.68,37.3A371,371,0,0,0,6.61,24.7l1.65-4.25Q27.52,25.93,46.33,33.19ZM53.13,13,51.8,17.5A274.28,274.28,0,0,0,6.8,4.39L7.5,0A298.66,298.66,0,0,1,53.13,13Z"/><path class="cls-1" d="M72,35.78H67.56V2.88H72ZM110,25q0,14-3.3,21.06A23.2,23.2,0,0,1,96.63,56.77,59.67,59.67,0,0,1,79.32,62.5l-1.78-4.32A66,66,0,0,0,92.69,53.6a20.57,20.57,0,0,0,9.7-8.82q3.3-5.89,3.3-19.8V2.45H110Z"/></g></g></svg>