<svg xmlns="http://www.w3.org/2000/svg" viewBox="0 0 361.74 194.69"><defs><style>.cls-1{fill:#00acf0;}</style></defs><g id="Lager_2" data-name="Lager 2"><g id="Lager_1-2" data-name="Lager 1"><path class="cls-1" d="M165.47,156.64c4.64,1.89,9.62,7.58,9.1,14.31a17.46,17.46,0,0,1-.51,2.51c-.86,6.12-6.73,10.93-11.15,10.93a8.89,8.89,0,0,1-3.71-.95c-45.06-20.5-100.58-38.79-150-48.56C4.5,133.93-.17,127.32,0,121.33a10.7,10.7,0,0,1,.33-2.92c1.16-6.3,6.73-10.34,11.14-10.34h1.62C62.8,117.85,119.25,136.45,165.47,156.64ZM153.53,90.39c4.65,2,9,9.17,8.69,15.16-.23,4.33,0,1.9-.25,3.24-1.16,7.66-6.35,10.25-10.76,10.25a7.76,7.76,0,0,1-3.72-1c-38.09-16-80.36-29-120.08-36-4.88-.67-9.56-7.44-9.56-13.44a20.62,20.62,0,0,1,.25-3.75c1.16-7.66,7.21-10.8,11.86-10.8h1.63A712.36,712.36,0,0,1,153.53,90.39Zm5.36-55.66c4.65,1.93,8.89,7.85,8.89,13.64a8.45,8.45,0,0,1,0,2.46c-1.16,7.07-6.8,11.24-11,11.24a10,10,0,0,1-4.18-1C111.74,45.35,69.47,33.45,28.59,27c-4.88-.65-9.33-6.77-9.33-12.88a29.63,29.63,0,0,1,.35-4.49A11.58,11.58,0,0,1,30.91,0h1.63C74.81,6.75,116.62,18.33,158.89,34.73Z"/><path class="cls-1" d="M238.67,132.12c0,5.15-6.31,13.3-15.76,13.3-9.11,0-15.76-7.95-15.76-13.11v-87c0-5.15,6.65-13.49,15.76-13.49,9.45,0,15.76,8.14,15.76,13.29Zm92.76-99.66c0-5.38,7.71-14.22,15.86-14.22,8.46,0,11.82,4.64,12,11.62l2.06,57.88c2.89,43-12,73.89-39.12,87.2-24.14,11.86-60.19,17.06-95,19.75h-2.2c-7.52,0-16.23-4.41-17.69-10.82-.55-1.2-.47-4.6-.46-5.56,0-4.14,5.29-9.62,12.49-10.24,31.66-2.69,62.31-7.27,83.14-17,23-10.78,28.79-20.58,29.37-55.08Z"/></g></g></svg>